# xmcd
#
# Track frame offsets:
#	150
#	16074
#	32543
#	48895
#	67542
#	85776
#	100159
#	114978
#	132266
#	144619
#	159389
#
# Disc length: 2272 seconds
#
# Revision: 0
# Processed by: cddbd v1.5.1PL2 Copyright (c) Steve Scherf et al.
# Submitted via: dBpowerAMP V4.0
#
DISCID=7808de0b
DTITLE=Guitarra Chill Lounge - Guitarra Chill Lounge
DYEAR=1900
DGENRE=
TTITLE0=Prelude Op. 28 Nº 20
TTITLE1=Largo (Händel)
TTITLE2=Air
TTITLE3=Suite 76
TTITLE4=Nessum Norma
TTITLE5=Ballada
TTITLE6=A la Turca
TTITLE7=Serenade
TTITLE8=Prelude Nº 1
TTITLE9=Prelude Op. 28 Nº 7
TTITLE10=Largo
EXTD=
EXTT0=
EXTT1=
EXTT2=
EXTT3=
EXTT4=
EXTT5=
EXTT6=
EXTT7=
EXTT8=
EXTT9=
EXTT10=
PLAYORDER=
